# Blender v2.79 (sub 0) OBJ File: ''
# www.blender.org
o Obj_000001
v -0.000000 0.525734 0.000000
v -0.058914 0.343955 0.000000
v -0.117827 0.162175 0.000000
v 0.117827 0.162175 0.000000
v 0.058914 0.343955 0.000000
v 0.500003 0.162461 0.000000
v 0.308915 0.162318 0.000000
v 0.190649 -0.061946 0.000000
v 0.345326 0.050258 0.000000
v 0.309019 -0.425328 0.000000
v 0.249834 -0.243637 0.000000
v -0.000000 -0.200460 0.000000
v 0.154509 -0.312894 0.000000
v -0.309019 -0.425328 0.000000
v -0.154509 -0.312894 0.000000
v -0.190649 -0.061946 0.000000
v -0.249834 -0.243637 0.000000
v -0.500003 0.162461 0.000000
v -0.345326 0.050258 0.000000
v -0.308915 0.162318 0.000000
v -0.000000 0.525734 0.000000
v -0.000000 -0.000000 0.123820
v 0.058914 0.343955 0.000000
v -0.000000 -0.000000 0.123820
v 0.117827 0.162175 0.000000
v 0.058914 0.081088 0.061910
v -0.000000 -0.000000 0.123820
v -0.000000 0.175245 0.082547
v -0.000000 0.350489 0.041273
v 0.117827 0.162175 0.000000
v 0.058914 0.081088 0.061910
v -0.000000 -0.000000 0.123820
v 0.500003 0.162461 0.000000
v 0.250001 0.081230 0.061910
v -0.000000 -0.000000 0.123820
v 0.308915 0.162318 0.000000
v 0.500003 0.162461 0.000000
v 0.250001 0.081230 0.061910
v -0.000000 -0.000000 0.123820
v 0.190649 -0.061946 0.000000
v -0.000000 -0.000000 0.123820
v 0.345326 0.050258 0.000000
v 0.190649 -0.061946 0.000000
v -0.000000 -0.000000 0.123820
v 0.309019 -0.425328 0.000000
v 0.154509 -0.212664 0.061910
v -0.000000 -0.000000 0.123820
v 0.249834 -0.243637 0.000000
v 0.309019 -0.425328 0.000000
v 0.154509 -0.212664 0.061910
v -0.000000 -0.000000 0.123820
v -0.000000 -0.200460 0.000000
v -0.000000 -0.000000 0.123820
v 0.154509 -0.312894 0.000000
v -0.000000 -0.200460 0.000000
v -0.000000 -0.000000 0.123820
v -0.309019 -0.425328 0.000000
v -0.000000 -0.000000 0.123820
v -0.154509 -0.312894 0.000000
v -0.206013 -0.283552 0.041273
v -0.103006 -0.141776 0.082547
v -0.309019 -0.425328 0.000000
v -0.000000 -0.000000 0.123820
v -0.249834 -0.243637 0.000000
v -0.000000 -0.000000 0.123820
v -0.190649 -0.061946 0.000000
v -0.095324 -0.030973 0.061910
v -0.000000 -0.000000 0.123820
v -0.103006 -0.141776 0.082547
v -0.206013 -0.283552 0.041273
v -0.190649 -0.061946 0.000000
v -0.095324 -0.030973 0.061910
v -0.000000 -0.000000 0.123820
v -0.345326 0.050258 0.000000
v -0.000000 -0.000000 0.123820
v -0.500003 0.162461 0.000000
v -0.000000 -0.000000 0.123820
v -0.333335 0.108307 0.041273
v -0.166668 0.054153 0.082547
v -0.500003 0.162461 0.000000
v -0.000000 -0.000000 0.123820
v -0.308915 0.162318 0.000000
v -0.000000 -0.000000 0.123820
v -0.117827 0.162175 0.000000
v -0.058914 0.081088 0.061910
v -0.000000 -0.000000 0.123820
v -0.166668 0.054153 0.082547
v -0.333335 0.108307 0.041273
v -0.117827 0.162175 0.000000
v -0.058914 0.081088 0.061910
v -0.000000 -0.000000 0.123820
v -0.058914 0.343955 0.000000
v -0.000000 -0.000000 0.123820
v -0.000000 0.525734 0.000000
v -0.000000 -0.000000 0.123820
v -0.000000 0.350489 0.041273
v -0.000000 0.175245 0.082547
v -0.000000 -0.000000 -0.123820
v -0.000000 -0.000000 -0.123820
v 0.058914 0.081088 -0.061910
v -0.000000 -0.000000 -0.123820
v -0.000000 0.175245 -0.082547
v -0.000000 0.350489 -0.041273
v 0.058914 0.081088 -0.061910
v -0.000000 -0.000000 -0.123820
v 0.250001 0.081230 -0.061910
v -0.000000 -0.000000 -0.123820
v 0.250001 0.081230 -0.061910
v -0.000000 -0.000000 -0.123820
v -0.000000 -0.000000 -0.123820
v -0.000000 -0.000000 -0.123820
v 0.154509 -0.212664 -0.061910
v -0.000000 -0.000000 -0.123820
v 0.154509 -0.212664 -0.061910
v -0.000000 -0.000000 -0.123820
v -0.000000 -0.000000 -0.123820
v -0.000000 -0.000000 -0.123820
v -0.000000 -0.000000 -0.123820
v -0.206013 -0.283552 -0.041273
v -0.103006 -0.141776 -0.082547
v -0.000000 -0.000000 -0.123820
v -0.000000 -0.000000 -0.123820
v -0.095324 -0.030973 -0.061910
v -0.000000 -0.000000 -0.123820
v -0.103006 -0.141776 -0.082547
v -0.206013 -0.283552 -0.041273
v -0.095324 -0.030973 -0.061910
v -0.000000 -0.000000 -0.123820
v -0.000000 -0.000000 -0.123820
v -0.000000 -0.000000 -0.123820
v -0.333335 0.108307 -0.041273
v -0.166668 0.054153 -0.082547
v -0.000000 -0.000000 -0.123820
v -0.000000 -0.000000 -0.123820
v -0.058914 0.081088 -0.061910
v -0.000000 -0.000000 -0.123820
v -0.166668 0.054153 -0.082547
v -0.333335 0.108307 -0.041273
v -0.058914 0.081088 -0.061910
v -0.000000 -0.000000 -0.123820
v -0.000000 -0.000000 -0.123820
v -0.000000 -0.000000 -0.123820
v -0.000000 0.350489 -0.041273
v -0.000000 0.175245 -0.082547
vt 0.167000 0.054174
vt 0.092315 0.000000
vt 0.120924 0.087544
vt 0.149532 0.175087
vt 0.241685 0.108347
vt 0.298639 0.283075
vt 0.184731 0.283075
vt 0.092366 0.283144
vt 0.074766 0.229150
vt 0.000000 0.283212
vt 0.213208 0.370661
vt 0.270162 0.370661
vt 0.333838 0.175087
vt 0.362446 0.087544
vt 0.316370 0.054174
vt 0.391054 0.000000
vt 0.408604 0.229150
vt 0.241685 0.458247
vt 0.391004 0.283144
vt 0.483370 0.283212
vt 0.259611 0.552078
vt 0.259611 0.459712
vt 0.173074 0.459712
vt 0.086537 0.459712
vt 0.129805 0.644443
vt 0.259611 0.644443
vt 0.000000 0.552078
vt 0.722171 0.490931
vt 0.630538 0.490931
vt 0.630538 0.621469
vt 0.630538 0.752007
vt 0.813804 0.621469
vt 0.813804 0.490931
vt 0.722171 0.000000
vt 0.630538 0.000000
vt 0.630538 0.130538
vt 0.813804 0.261075
vt 0.813804 0.000000
vt 0.129805 0.905519
vt 0.259611 0.720787
vt 0.000000 0.720787
vt 0.259611 0.813153
vt 0.259611 0.905519
vt 0.906902 0.490931
vt 0.815269 0.490931
vt 0.815269 0.621469
vt 0.998535 0.752007
vt 0.998535 0.490931
vt 0.445807 0.719323
vt 0.629073 0.632786
vt 0.629073 0.546249
vt 0.445807 0.459712
vt 0.537440 0.459712
vt 0.629073 0.459712
vt 0.352709 0.459712
vt 0.261075 0.459712
vt 0.261075 0.546249
vt 0.261075 0.632786
vt 0.444342 0.589517
vt 0.444342 0.459712
vt 0.352709 0.719323
vt 0.815269 0.130538
vt 0.906902 0.000000
vt 0.815269 0.000000
vt 0.906902 0.261075
vt 0.998535 0.087025
vt 0.998535 0.174050
vt 0.998535 0.000000
vt 0.537440 0.720787
vt 0.445807 0.720787
vt 0.445807 0.807324
vt 0.445807 0.893861
vt 0.629073 0.850593
vt 0.629073 0.720787
vt 0.537440 0.980398
vt 0.261075 0.850593
vt 0.352709 0.720787
vt 0.261075 0.720787
vt 0.352709 0.980398
vt 0.444342 0.807324
vt 0.444342 0.893861
vt 0.444342 0.720787
vt 0.173074 0.459712
vt 0.086537 0.459712
vt 0.129805 0.644443
vt 0.000000 0.552078
vt 0.630538 0.621469
vt 0.630538 0.752007
vt 0.813804 0.621469
vt 0.630538 0.130538
vt 0.813804 0.261075
vt 0.129805 0.905519
vt 0.000000 0.720787
vt 0.815269 0.621469
vt 0.998535 0.752007
vt 0.445807 0.719323
vt 0.629073 0.546249
vt 0.629073 0.632786
vt 0.261075 0.546249
vt 0.261075 0.632786
vt 0.444342 0.589517
vt 0.352709 0.719323
vt 0.815269 0.130538
vt 0.906902 0.261075
vt 0.998535 0.087025
vt 0.998535 0.174050
vt 0.445807 0.807324
vt 0.445807 0.893861
vt 0.629073 0.850593
vt 0.537440 0.980398
vt 0.261075 0.850593
vt 0.352709 0.980398
vt 0.444342 0.807324
vt 0.444342 0.893861
vn 0.0000 0.0000 -1.0000
vn 0.5775 0.1872 0.7947
vn -0.0005 0.6071 0.7947
vn 0.3564 -0.4914 0.7947
vn 0.5772 0.1880 0.7947
vn -0.3572 -0.4908 0.7947
vn 0.0000 0.2425 -0.9701
vn 0.3572 -0.4908 0.7947
vn -0.5772 0.1880 0.7947
vn -0.3564 -0.4914 0.7947
vn 0.0005 0.6071 0.7947
vn -0.5775 0.1872 0.7947
vn 0.5775 0.1872 -0.7947
vn -0.0005 0.6071 -0.7947
vn 0.3564 -0.4914 -0.7947
vn 0.5772 0.1880 -0.7947
vn -0.3572 -0.4908 -0.7947
vn 0.0000 0.2425 0.9701
vn 0.3572 -0.4908 -0.7947
vn -0.5772 0.1880 -0.7947
vn -0.3564 -0.4914 -0.7947
vn 0.0005 0.6071 -0.7947
vn -0.5775 0.1872 -0.7947
s off
f 15/1/1 14/2/1 17/3/1
f 16/4/1 12/5/1 17/3/1
f 15/1/1 17/3/1 12/5/1
f 4/6/1 16/4/1 3/7/1
f 20/8/1 19/9/1 18/10/1
f 19/9/1 20/8/1 3/7/1
f 3/7/1 2/11/1 5/12/1
f 3/7/1 16/4/1 19/9/1
f 12/5/1 16/4/1 8/13/1
f 16/4/1 4/6/1 8/13/1
f 8/13/1 11/14/1 12/5/1
f 13/15/1 11/14/1 10/16/1
f 4/6/1 9/17/1 8/13/1
f 1/18/1 5/12/1 2/11/1
f 4/6/1 7/19/1 9/17/1
f 6/20/1 9/17/1 7/19/1
f 5/12/1 4/6/1 3/7/1
f 13/15/1 12/5/1 11/14/1
f 23/21/2 21/22/2 29/23/2
f 28/24/2 23/21/2 29/23/2
f 26/25/2 25/26/2 23/21/2
f 23/21/2 24/27/2 26/25/2
f 28/24/2 24/27/2 23/21/2
f 36/28/3 30/29/3 31/30/3
f 32/31/3 34/32/3 31/30/3
f 34/32/3 33/33/3 36/28/3
f 36/28/3 31/30/3 34/32/3
f 42/34/4 37/35/4 38/36/4
f 38/36/4 41/37/4 40/38/4
f 42/34/4 38/36/4 40/38/4
f 46/39/5 43/40/5 44/41/5
f 48/42/5 43/40/5 46/39/5
f 48/42/5 46/39/5 45/43/5
f 54/44/6 49/45/6 50/46/6
f 50/46/6 53/47/6 52/48/6
f 54/44/6 50/46/6 52/48/6
f 56/49/7 61/50/7 60/51/7
f 56/49/8 60/51/8 55/52/8
f 59/53/8 55/52/8 60/51/8
f 59/53/8 60/51/8 57/54/8
f 64/55/9 62/56/9 70/57/9
f 69/58/9 64/55/9 70/57/9
f 67/59/9 66/60/9 64/55/9
f 64/55/9 65/61/9 67/59/9
f 69/58/9 65/61/9 64/55/9
f 72/62/10 74/63/10 71/64/10
f 75/65/10 74/63/10 72/62/10
f 78/66/10 74/63/10 79/67/10
f 79/67/10 74/63/10 75/65/10
f 76/68/10 74/63/10 78/66/10
f 82/69/11 80/70/11 88/71/11
f 87/72/11 82/69/11 88/71/11
f 85/73/11 84/74/11 82/69/11
f 82/69/11 83/75/11 85/73/11
f 87/72/11 83/75/11 82/69/11
f 90/76/12 92/77/12 89/78/12
f 93/79/12 92/77/12 90/76/12
f 96/80/12 92/77/12 97/81/12
f 97/81/12 92/77/12 93/79/12
f 94/82/12 92/77/12 96/80/12
f 23/21/13 103/83/13 21/22/13
f 102/84/13 103/83/13 23/21/13
f 100/85/13 23/21/13 25/26/13
f 23/21/13 100/85/13 99/86/13
f 102/84/13 23/21/13 99/86/13
f 36/28/14 104/87/14 30/29/14
f 105/88/14 104/87/14 106/89/14
f 106/89/14 36/28/14 33/33/14
f 36/28/14 106/89/14 104/87/14
f 42/34/15 108/90/15 37/35/15
f 108/90/15 40/38/15 110/91/15
f 42/34/15 40/38/15 108/90/15
f 112/92/16 111/93/16 43/40/16
f 48/42/16 112/92/16 43/40/16
f 48/42/16 45/43/16 112/92/16
f 54/44/17 114/94/17 49/45/17
f 114/94/17 52/48/17 116/95/17
f 54/44/17 52/48/17 114/94/17
f 117/96/18 119/97/18 120/98/18
f 117/96/19 55/52/19 119/97/19
f 59/53/19 119/97/19 55/52/19
f 59/53/19 57/54/19 119/97/19
f 64/55/20 126/99/20 62/56/20
f 125/100/20 126/99/20 64/55/20
f 123/101/20 64/55/20 66/60/20
f 64/55/20 123/101/20 122/102/20
f 125/100/20 64/55/20 122/102/20
f 127/103/21 71/64/21 74/63/21
f 129/104/21 127/103/21 74/63/21
f 131/105/21 132/106/21 74/63/21
f 132/106/21 129/104/21 74/63/21
f 76/68/21 131/105/21 74/63/21
f 82/69/22 138/107/22 80/70/22
f 137/108/22 138/107/22 82/69/22
f 135/109/22 82/69/22 84/74/22
f 82/69/22 135/109/22 134/110/22
f 137/108/22 82/69/22 134/110/22
f 139/111/23 89/78/23 92/77/23
f 141/112/23 139/111/23 92/77/23
f 143/113/23 144/114/23 92/77/23
f 144/114/23 141/112/23 92/77/23
f 94/82/23 143/113/23 92/77/23
